<?xml version="1.0" standalone="no"?>
<!DOCTYPE svg PUBLIC "-//W3C//DTD SVG 20010904//EN"
 "http://www.w3.org/TR/2001/REC-SVG-20010904/DTD/svg10.dtd">
<svg version="1.0" xmlns="http://www.w3.org/2000/svg"
 width="370.000000pt" height="136.000000pt" viewBox="0 0 370.000000 136.000000"
 preserveAspectRatio="xMidYMid meet">

<g transform="translate(0.000000,136.000000) scale(0.100000,-0.100000)"
fill="#000000" stroke="none">
<path d="M51 1314 c-1 -17 -4 -34 -8 -38 -4 -4 -6 -57 -3 -119 5 -165 4 -358
-2 -475 -5 -80 -10 -108 -24 -123 -18 -20 -18 -21 4 -38 21 -15 23 -24 21
-101 -3 -124 -1 -257 6 -318 6 -45 9 -52 25 -47 10 3 21 1 25 -5 3 -6 10 -8
15 -5 5 3 54 6 107 6 54 0 152 0 218 1 66 0 131 0 145 0 139 -2 222 -1 315 4
268 14 691 4 705 -17 3 -4 20 -4 39 -1 l33 7 5 95 c3 52 6 108 6 125 2 26 6
30 37 32 80 6 80 5 80 -116 0 -60 3 -116 6 -125 5 -13 23 -16 94 -16 49 0 92
5 95 10 10 16 53 11 64 -7 6 -10 11 -13 11 -8 0 9 577 11 715 3 22 -2 55 0 73
4 24 6 32 4 32 -7 0 -12 34 -14 60 -5 3 2 10 1 15 0 31 -7 85 -8 81 -1 -5 8
356 18 527 14 l98 -2 -1 137 c-2 163 -5 181 -37 193 -19 7 -23 14 -18 30 4 12
7 96 6 188 0 91 2 219 6 285 5 105 8 119 24 123 16 4 19 15 19 62 1 70 9 164
20 214 5 24 4 39 -3 44 -12 7 -378 5 -600 -4 -89 -3 -153 -1 -183 6 -34 9 -50
9 -60 1 -7 -7 -19 -8 -26 -4 -7 4 -188 9 -403 11 -214 1 -424 2 -465 3 -149 2
-587 -8 -655 -15 -46 -5 -86 -3 -115 5 -54 15 -228 15 -480 1 -169 -9 -397 -2
-452 15 -9 3 -19 0 -23 -6 -9 -15 -162 -13 -168 3 -3 6 -6 -2 -6 -19z m420
-160 c8 -133 5 -144 -37 -144 -24 0 -34 -5 -34 -16 0 -13 16 -88 64 -294 12
-50 12 -56 -3 -57 -9 -1 -37 -5 -63 -9 l-47 -6 -11 43 c-6 24 -17 64 -25 89
-7 25 -19 72 -25 105 -19 103 -32 145 -46 145 -12 0 -13 -25 -8 -143 4 -78 4
-164 0 -190 l-7 -47 -54 0 c-30 0 -57 5 -60 10 -7 12 -13 488 -7 567 l4 53
156 2 c87 2 166 0 177 -3 18 -5 21 -18 26 -105z m1135 108 c80 -2 81 -2 106
-38 l26 -35 1 -248 2 -247 -34 -30 -33 -31 -152 -5 c-135 -4 -152 -3 -152 11
0 9 -3 39 -6 68 -7 51 -6 51 22 55 l29 3 0 185 0 185 -31 3 -31 3 3 57 2 57
44 5 c43 6 54 6 204 2z m761 -52 c25 -109 72 -347 88 -445 18 -106 43 -162 30
-67 -7 54 -5 57 38 52 16 -1 17 12 15 192 l-3 193 -25 0 c-21 0 -26 6 -28 32
-2 17 1 46 5 64 10 37 -3 35 208 31 l110 -3 27 -39 27 -39 1 -234 0 -235 -25
-30 c-14 -16 -25 -34 -25 -40 0 -19 -53 -23 -242 -20 -120 1 -191 6 -193 13
-2 5 -9 31 -15 58 l-13 47 -58 0 c-62 0 -60 2 -74 -67 -8 -40 -16 -45 -71 -50
l-43 -3 5 32 c2 18 15 121 29 228 14 107 29 206 34 220 5 14 12 43 16 65 16
105 11 101 120 100 l50 0 12 -55z m-1561 -5 c1 -27 -4 -53 -10 -57 -6 -4 -50
-8 -97 -8 -99 0 -104 -4 -93 -76 l6 -43 71 -3 c66 -3 72 -5 77 -27 3 -14 4
-40 2 -58 l-4 -33 -72 0 -71 0 -2 -70 -2 -70 104 0 105 0 0 -61 0 -60 -52 2
c-29 1 -101 -2 -159 -6 l-106 -8 -6 63 c-4 35 -7 175 -7 311 l0 248 38 4 c20
2 91 3 157 3 l120 -1 1 -50z m379 10 l34 -40 0 -231 0 -232 -30 -41 -31 -41
-165 0 -165 0 6 31 c3 17 6 44 6 60 0 23 5 28 28 31 l27 3 3 193 c2 180 1 193
-15 192 -40 -5 -43 -1 -43 61 l0 61 155 -4 156 -3 34 -40z m901 0 c11 -73 8
-75 -106 -75 l-100 0 0 -75 c0 -84 -7 -79 98 -75 l42 2 0 -56 0 -56 -70 0 -70
0 0 -65 0 -65 104 0 104 0 -1 -60 -2 -60 -161 0 -162 0 -7 55 c-6 55 3 553 12
568 2 4 73 7 158 7 l154 0 7 -45z m-1716 -726 c0 -88 0 -89 -25 -89 -31 0 -31
-6 0 -145 34 -149 34 -147 -16 -143 -40 3 -43 5 -56 48 -7 25 -23 85 -34 135
-11 50 -24 94 -30 99 -5 6 -9 -43 -9 -132 l0 -142 -45 0 -45 0 -2 98 c-1 53
-2 143 -3 199 -1 57 -5 106 -8 110 -4 3 1 15 10 26 13 15 14 18 3 12 -11 -6
-12 -5 -5 3 10 11 209 21 248 13 15 -3 17 -16 17 -92z m519 73 c17 -25 20 -47
22 -203 2 -170 2 -176 -21 -207 l-24 -32 -113 0 -113 0 0 45 c0 38 3 45 20 45
19 0 20 7 20 145 0 138 -1 145 -20 145 -16 0 -20 7 -21 38 l-2 37 -6 -35 -6
-35 -75 -5 -75 -5 0 -60 0 -60 30 2 c60 4 75 -4 75 -42 l0 -35 -50 0 -50 0 0
-45 0 -44 73 -3 72 -3 1 -42 1 -41 -114 -7 c-63 -4 -117 -5 -120 -1 -6 6 -8
150 -5 348 l2 117 28 3 c15 2 122 5 239 6 l212 2 20 -28z m241 18 c35 0 35 -1
35 -43 -1 -40 -2 -42 -30 -43 -17 0 -49 -1 -72 -2 l-43 -2 0 -50 0 -50 50 0
50 0 0 -39 0 -40 -52 -3 -53 -3 -3 -47 -3 -48 38 -2 c21 -1 56 -2 78 -3 40 0
40 0 43 -43 l3 -43 -118 3 -118 3 -3 234 -2 234 82 -6 c46 -4 99 -7 118 -7z
m591 4 l37 -6 4 -92 c3 -50 2 -95 -2 -100 -5 -4 -38 -11 -74 -13 -38 -3 -66
-11 -67 -17 -1 -13 -4 -72 -7 -174 l-2 -73 -52 3 -53 3 2 150 c1 83 2 189 2
238 l1 87 88 0 c48 0 103 -3 123 -6z m349 -45 l0 -45 -47 0 -48 1 -7 -194 c-4
-106 -10 -196 -12 -199 -3 -3 -25 -1 -48 4 l-42 9 0 188 0 187 -42 0 c-45 0
-54 10 -54 60 0 36 8 38 172 36 l128 -1 0 -46z m200 -5 c0 -42 -1 -44 -30 -44
l-30 0 0 -140 0 -140 25 0 c23 0 25 -4 25 -45 l0 -45 -90 0 -90 0 0 41 c0 32
4 42 19 46 18 5 20 16 23 144 3 132 2 138 -17 141 -11 2 -19 6 -17 11 1 4 2
23 2 42 l0 34 83 3 c45 2 85 2 90 0 4 -2 7 -23 7 -48z m393 5 c13 -24 32 -66
42 -92 10 -26 21 -49 24 -51 3 -2 5 38 3 90 -4 107 1 114 67 98 35 -9 36 -10
39 -61 2 -41 6 -51 18 -46 9 3 14 -1 14 -12 0 -11 -5 -15 -14 -12 -11 5 -14
-7 -13 -56 0 -34 -1 -111 -3 -170 l-3 -108 -46 3 -45 3 -47 103 c-44 96 -47
101 -53 71 -3 -17 -6 -65 -6 -105 l0 -74 -44 0 c-25 0 -48 6 -52 12 -5 7 -8
110 -8 230 l-1 217 35 4 c61 6 69 2 93 -44z m-1398 34 c10 -3 30 -33 46 -66
l28 -60 33 67 32 66 44 0 44 0 -6 -221 c-3 -122 -9 -225 -12 -230 -3 -5 -23
-9 -44 -9 l-40 0 6 108 6 107 -24 -40 c-32 -55 -50 -55 -74 -3 l-19 43 -3
-102 -3 -103 -50 0 -51 0 6 223 c3 122 6 223 6 225 0 5 59 2 75 -5z m1257
-100 c2 -60 2 -162 0 -229 l-4 -121 -59 1 c-52 1 -60 4 -64 21 -11 52 -14 57
-12 23 1 -20 -2 -40 -5 -44 -4 -3 -27 -3 -51 0 l-44 7 -5 132 c-2 73 -2 174 0
225 l4 92 119 0 118 0 3 -107z m348 58 c0 -6 -4 -13 -10 -16 -5 -3 -10 1 -10
9 0 9 5 16 10 16 6 0 10 -4 10 -9z"/>
<path d="M226 1144 c-3 -9 -6 -17 -6 -19 0 -2 27 -5 60 -7 57 -3 60 -2 60 20
0 20 -5 22 -54 22 -40 0 -55 -4 -60 -16z"/>
<path d="M1552 951 l1 -201 24 0 24 0 -3 198 c-3 195 -3 197 -25 200 l-23 3 2
-200z"/>
<path d="M2676 1131 c-7 -14 -6 -381 1 -381 4 0 18 3 31 6 23 7 23 9 19 113
-3 58 -2 142 2 186 l6 80 -28 1 c-15 1 -29 -2 -31 -5z"/>
<path d="M2282 979 c-6 -14 -13 -46 -17 -71 l-7 -45 31 5 c35 5 37 13 17 87
-13 48 -14 49 -24 24z"/>
<path d="M1053 1142 c-16 -10 -24 -78 -26 -244 -3 -156 -1 -162 43 -151 22 6
23 9 16 96 -3 50 -6 139 -6 199 0 105 -3 116 -27 100z"/>
<path d="M213 511 c-32 -8 -16 -27 30 -35 32 -6 37 -4 37 12 0 22 -31 32 -67
23z"/>
<path d="M776 478 c-3 -13 -6 -78 -6 -145 0 -116 1 -123 20 -123 18 0 20 7 20
78 0 42 3 107 7 145 5 63 5 67 -14 67 -13 0 -23 -9 -27 -22z"/>
<path d="M1600 471 c0 -16 6 -20 30 -18 29 2 44 27 16 27 -8 0 -21 3 -30 6
-11 4 -16 0 -16 -15z"/>
<path d="M2383 493 c-21 -4 -21 -7 -16 -141 3 -75 6 -138 7 -138 0 -1 16 1 34
3 l32 5 -1 67 c-2 108 -13 204 -24 206 -5 1 -20 0 -32 -2z"/>
</g>
</svg>
